<?xml version="1.0" encoding="UTF-8"?>
<svg width="19px" height="18px" viewBox="0 0 19 18" version="1.1" xmlns="http://www.w3.org/2000/svg" xmlns:xlink="http://www.w3.org/1999/xlink">
    <!-- Generator: Sketch 54.1 (76490) - https://sketchapp.com -->
    <title>icon/cal-searchblue</title>
    <desc>Created with Sketch.</desc>
    <g id="symbols" stroke="none" stroke-width="1" fill="none" fill-rule="evenodd">
        <g id="scheduale/column/header" transform="translate(-63.000000, -28.000000)">
            <g id="icon/48/Search" transform="translate(56.000000, 20.000000)">
                <polygon id="hotspot" points="0 0 32 0 32 32 0 32"></polygon>
                <path d="M24.6666667,15.8880582 C23.8500502,15.5312633 22.9481396,15.3333333 22,15.3333333 C20.6901284,15.3333333 19.4684891,15.7111008 18.438087,16.3636307 C18.2546703,16.1415424 17.977198,16 17.6666667,16 L17,16 C16.4477153,16 16,16.4477153 16,17 L16,17.6666667 C16,17.977198 16.1415424,18.2546703 16.3636307,18.438087 C15.7111008,19.4684891 15.3333333,20.6901284 15.3333333,22 C15.3333333,22.6968038 15.4402359,23.3686392 15.6385349,24 L10,24 C8.52724067,24 7.33333333,22.8060927 7.33333333,21.3333333 L7.33333333,10.6666667 C7.33333333,9.19390733 8.52724067,8 10,8 L22,8 C23.4727593,8 24.6666667,9.19390733 24.6666667,10.6666667 L24.6666667,15.8880582 Z M11.6666667,10 C11.4825718,10 11.3333333,10.1492384 11.3333333,10.3333333 C11.3333333,10.5174282 11.4825718,10.6666667 11.6666667,10.6666667 L19,10.6666667 C19.1840949,10.6666667 19.3333333,10.5174282 19.3333333,10.3333333 C19.3333333,10.1492384 19.1840949,10 19,10 L11.6666667,10 Z M13.6666667,12.6666667 C13.1143819,12.6666667 12.6666667,13.1143819 12.6666667,13.6666667 L12.6666667,14.3333333 C12.6666667,14.8856181 13.1143819,15.3333333 13.6666667,15.3333333 L14.3333333,15.3333333 C14.8856181,15.3333333 15.3333333,14.8856181 15.3333333,14.3333333 L15.3333333,13.6666667 C15.3333333,13.1143819 14.8856181,12.6666667 14.3333333,12.6666667 L13.6666667,12.6666667 Z M17,12.6666667 C16.4477153,12.6666667 16,13.1143819 16,13.6666667 L16,14.3333333 C16,14.8856181 16.4477153,15.3333333 17,15.3333333 L17.6666667,15.3333333 C18.2189514,15.3333333 18.6666667,14.8856181 18.6666667,14.3333333 L18.6666667,13.6666667 C18.6666667,13.1143819 18.2189514,12.6666667 17.6666667,12.6666667 L17,12.6666667 Z M20.3333333,12.6666667 C19.7810486,12.6666667 19.3333333,13.1143819 19.3333333,13.6666667 L19.3333333,14.3333333 C19.3333333,14.8856181 19.7810486,15.3333333 20.3333333,15.3333333 L21,15.3333333 C21.5522847,15.3333333 22,14.8856181 22,14.3333333 L22,13.6666667 C22,13.1143819 21.5522847,12.6666667 21,12.6666667 L20.3333333,12.6666667 Z M10.3333333,16 C9.78104858,16 9.33333333,16.4477153 9.33333333,17 L9.33333333,17.6666667 C9.33333333,18.2189514 9.78104858,18.6666667 10.3333333,18.6666667 L11,18.6666667 C11.5522847,18.6666667 12,18.2189514 12,17.6666667 L12,17 C12,16.4477153 11.5522847,16 11,16 L10.3333333,16 Z M13.6666667,16 C13.1143819,16 12.6666667,16.4477153 12.6666667,17 L12.6666667,17.6666667 C12.6666667,18.2189514 13.1143819,18.6666667 13.6666667,18.6666667 L14.3333333,18.6666667 C14.8856181,18.6666667 15.3333333,18.2189514 15.3333333,17.6666667 L15.3333333,17 C15.3333333,16.4477153 14.8856181,16 14.3333333,16 L13.6666667,16 Z M10.3333333,19.3333333 C9.78104858,19.3333333 9.33333333,19.7810486 9.33333333,20.3333333 L9.33333333,21 C9.33333333,21.5522847 9.78104858,22 10.3333333,22 L11,22 C11.5522847,22 12,21.5522847 12,21 L12,20.3333333 C12,19.7810486 11.5522847,19.3333333 11,19.3333333 L10.3333333,19.3333333 Z M13.6666667,19.3333333 C13.1143819,19.3333333 12.6666667,19.7810486 12.6666667,20.3333333 L12.6666667,21 C12.6666667,21.5522847 13.1143819,22 13.6666667,22 L14.3333333,22 C14.8856181,22 15.3333333,21.5522847 15.3333333,21 L15.3333333,20.3333333 C15.3333333,19.7810486 14.8856181,19.3333333 14.3333333,19.3333333 L13.6666667,19.3333333 Z M25.8912022,24.9165121 L24.3332757,23.3588517 C24.2629581,23.288546 24.1676386,23.2494874 24.0676313,23.2494874 L23.8129252,23.2494874 C24.2442067,22.6979787 24.5004755,22.0042965 24.5004755,21.2496826 C24.5004755,19.4545455 23.0456816,18 21.2502377,18 C19.4547939,18 18,19.4545455 18,21.2496826 C18,23.0448198 19.4547939,24.4993653 21.2502377,24.4993653 C22.0049804,24.4993653 22.6987812,24.2431403 23.250384,23.8119324 L23.250384,24.0665951 C23.250384,24.1665853 23.2894494,24.2618885 23.359767,24.3321941 L24.9176935,25.8898545 C24.9683118,25.9404642 25.0600389,25.9771374 25.1928748,25.9998739 C25.3157692,25.9738251 25.4006175,25.9371519 25.4474197,25.8898545 L25.8896396,25.4477102 C26.0365253,25.3008495 26.0365253,25.0633727 25.8912022,24.9165121 Z M21.2502377,23.2494874 C20.1454694,23.2494874 19.2500914,22.3558246 19.2500914,21.2496826 C19.2500914,20.145103 20.1439068,19.2498779 21.2502377,19.2498779 C22.355006,19.2498779 23.250384,20.1435407 23.250384,21.2496826 C23.250384,22.3542623 22.3565687,23.2494874 21.2502377,23.2494874 Z" id="icon" fill="#476BB3" fill-rule="evenodd"></path>
            </g>
        </g>
    </g>
</svg>