<?xml version="1.0" encoding="UTF-8"?>
<svg width="18px" height="16px" viewBox="0 0 18 16" version="1.1" xmlns="http://www.w3.org/2000/svg" xmlns:xlink="http://www.w3.org/1999/xlink">
    <!-- Generator: Sketch 54.1 (76490) - https://sketchapp.com -->
    <title>icon/cal-monthblue</title>
    <desc>Created with Sketch.</desc>
    <g id="symbols" stroke="none" stroke-width="1" fill="none" fill-rule="evenodd">
        <g id="scheduale/column/header" transform="translate(-327.000000, -28.000000)">
            <g id="icon/48/month" transform="translate(320.000000, 20.000000)">
                <polygon id="hotspot" points="0 0 32 0 32 32 0 32"></polygon>
                <path d="M10,8 L22,8 C23.4727593,8 24.6666667,9.19390733 24.6666667,10.6666667 C24.6666667,15.4074074 24.6666667,18.962963 24.6666667,21.3333333 C24.6666667,22.8060784 23.4727709,23.9999741 22.0000259,23.9999741 C22.0000173,23.9999741 22.0000086,23.9999741 22,23.9999741 L22,24 L10,24 L10,23.9999741 C8.52725497,23.9999884 7.33334764,22.8061043 7.33333333,21.3333592 C7.33333333,21.3333506 7.33333333,21.333342 7.33333333,21.3333333 C7.33333333,17.7869737 7.33333333,14.2130263 7.33333333,10.6666667 C7.33333333,9.19390733 8.52724067,8 10,8 Z M11.6666667,10 C11.4825718,10 11.3333333,10.1492384 11.3333333,10.3333333 C11.3333333,10.5174282 11.4825718,10.6666667 11.6666667,10.6666667 L19,10.6666667 C19.1840949,10.6666667 19.3333333,10.5174282 19.3333333,10.3333333 C19.3333333,10.1492384 19.1840949,10 19,10 L11.6666667,10 Z M13.6666667,12.6666667 C13.1143819,12.6666667 12.6666667,13.1143819 12.6666667,13.6666667 L12.6666667,14.3333333 C12.6666667,14.8856181 13.1143819,15.3333333 13.6666667,15.3333333 L14.3333333,15.3333333 C14.8856181,15.3333333 15.3333333,14.8856181 15.3333333,14.3333333 L15.3333333,13.6666667 C15.3333333,13.1143819 14.8856181,12.6666667 14.3333333,12.6666667 L13.6666667,12.6666667 Z M17,12.6666667 C16.4477153,12.6666667 16,13.1143819 16,13.6666667 L16,14.3333333 C16,14.8856181 16.4477153,15.3333333 17,15.3333333 L17.6666667,15.3333333 C18.2189514,15.3333333 18.6666667,14.8856181 18.6666667,14.3333333 L18.6666667,13.6666667 C18.6666667,13.1143819 18.2189514,12.6666667 17.6666667,12.6666667 L17,12.6666667 Z M20.3333333,12.6666667 C19.7810486,12.6666667 19.3333333,13.1143819 19.3333333,13.6666667 L19.3333333,14.3333333 C19.3333333,14.8856181 19.7810486,15.3333333 20.3333333,15.3333333 L21,15.3333333 C21.5522847,15.3333333 22,14.8856181 22,14.3333333 L22,13.6666667 C22,13.1143819 21.5522847,12.6666667 21,12.6666667 L20.3333333,12.6666667 Z M10.3333333,16 C9.78104858,16 9.33333333,16.4477153 9.33333333,17 L9.33333333,17.6666667 C9.33333333,18.2189514 9.78104858,18.6666667 10.3333333,18.6666667 L11,18.6666667 C11.5522847,18.6666667 12,18.2189514 12,17.6666667 L12,17 C12,16.4477153 11.5522847,16 11,16 L10.3333333,16 Z M13.6666667,16 C13.1143819,16 12.6666667,16.4477153 12.6666667,17 L12.6666667,17.6666667 C12.6666667,18.2189514 13.1143819,18.6666667 13.6666667,18.6666667 L14.3333333,18.6666667 C14.8856181,18.6666667 15.3333333,18.2189514 15.3333333,17.6666667 L15.3333333,17 C15.3333333,16.4477153 14.8856181,16 14.3333333,16 L13.6666667,16 Z M17,16 C16.4477153,16 16,16.4477153 16,17 L16,17.6666667 C16,18.2189514 16.4477153,18.6666667 17,18.6666667 L17.6666667,18.6666667 C18.2189514,18.6666667 18.6666667,18.2189514 18.6666667,17.6666667 L18.6666667,17 C18.6666667,16.4477153 18.2189514,16 17.6666667,16 L17,16 Z M20.3333333,16 C19.7810486,16 19.3333333,16.4477153 19.3333333,17 L19.3333333,17.6666667 C19.3333333,18.2189514 19.7810486,18.6666667 20.3333333,18.6666667 L21,18.6666667 C21.5522847,18.6666667 22,18.2189514 22,17.6666667 L22,17 C22,16.4477153 21.5522847,16 21,16 L20.3333333,16 Z M10.3333333,19.3333333 C9.78104858,19.3333333 9.33333333,19.7810486 9.33333333,20.3333333 L9.33333333,21 C9.33333333,21.5522847 9.78104858,22 10.3333333,22 L11,22 C11.5522847,22 12,21.5522847 12,21 L12,20.3333333 C12,19.7810486 11.5522847,19.3333333 11,19.3333333 L10.3333333,19.3333333 Z M13.6666667,19.3333333 C13.1143819,19.3333333 12.6666667,19.7810486 12.6666667,20.3333333 L12.6666667,21 C12.6666667,21.5522847 13.1143819,22 13.6666667,22 L14.3333333,22 C14.8856181,22 15.3333333,21.5522847 15.3333333,21 L15.3333333,20.3333333 C15.3333333,19.7810486 14.8856181,19.3333333 14.3333333,19.3333333 L13.6666667,19.3333333 Z M17,19.3333333 C16.4477153,19.3333333 16,19.7810486 16,20.3333333 L16,21 C16,21.5522847 16.4477153,22 17,22 L17.6666667,22 C18.2189514,22 18.6666667,21.5522847 18.6666667,21 L18.6666667,20.3333333 C18.6666667,19.7810486 18.2189514,19.3333333 17.6666667,19.3333333 L17,19.3333333 Z" id="icon" fill="#476BB3" fill-rule="evenodd"></path>
            </g>
        </g>
    </g>
</svg>