<?xml version="1.0" encoding="UTF-8"?>
<svg width="14px" height="18px" viewBox="0 0 14 18" version="1.1" xmlns="http://www.w3.org/2000/svg" xmlns:xlink="http://www.w3.org/1999/xlink">
    <!-- Generator: Sketch 54.1 (76490) - https://sketchapp.com -->
    <title>icon/cal-daysheetblue</title>
    <desc>Created with Sketch.</desc>
    <g id="symbols" stroke="none" stroke-width="1" fill="none" fill-rule="evenodd">
        <g id="scheduale/column/header" transform="translate(-33.000000, -26.000000)">
            <g id="icon/48/day-sheet" transform="translate(24.000000, 20.000000)">
                <polygon id="hotspot" points="0 0 32 0 32 32 0 32"></polygon>
                <path d="M16,6.66666667 C15.2209375,6.66666667 14.5698125,7.1459718 14.3854167,7.79710329 L12.6666667,7.79710329 L12.6666667,9.68116434 L19.3333333,9.68116434 L19.3333333,7.79710329 L17.6145833,7.79710329 C17.4302083,7.1459718 16.7790625,6.66666667 16,6.66666667 Z M9.33333333,9.88406104 C9.33333333,9.14768138 9.930287,8.55072771 10.6666667,8.55072771 L12.25,8.55072771 L12.25,10.0579765 L19.75,10.0579765 L19.75,8.55072771 L21.3333333,8.55072771 C22.069713,8.55072771 22.6666667,9.14768138 22.6666667,9.88406104 L22.6666667,10.7202148 L22.6666667,22.6666667 C22.6666667,23.4030463 22.069713,24 21.3333333,24 L10.6666667,24 C9.930287,24 9.33333333,23.4030463 9.33333333,22.6666667 L9.33333333,10 L9.33333333,9.88406104 Z M11.3333333,12 C10.9651435,12 10.6666667,12.2984768 10.6666667,12.6666667 C10.6666667,13.0348565 10.9651435,13.3333333 11.3333333,13.3333333 C11.7015232,13.3333333 12,13.0348565 12,12.6666667 C12,12.2984768 11.7015232,12 11.3333333,12 Z M13.3333333,12 C12.9651435,12 12.6666667,12.2984768 12.6666667,12.6666667 C12.6666667,13.0348565 12.9651435,13.3333333 13.3333333,13.3333333 L20.6666667,13.3333333 C21.0348565,13.3333333 21.3333333,13.0348565 21.3333333,12.6666667 C21.3333333,12.2984768 21.0348565,12 20.6666667,12 L13.3333333,12 Z M11.3333333,14.6666667 C10.9651435,14.6666667 10.6666667,14.9651435 10.6666667,15.3333333 C10.6666667,15.7015232 10.9651435,16 11.3333333,16 C11.7015232,16 12,15.7015232 12,15.3333333 C12,14.9651435 11.7015232,14.6666667 11.3333333,14.6666667 Z M13.3333333,14.6666667 C12.9651435,14.6666667 12.6666667,14.9651435 12.6666667,15.3333333 C12.6666667,15.7015232 12.9651435,16 13.3333333,16 L20.6666667,16 C21.0348565,16 21.3333333,15.7015232 21.3333333,15.3333333 C21.3333333,14.9651435 21.0348565,14.6666667 20.6666667,14.6666667 L13.3333333,14.6666667 Z M11.3333333,17.3333333 C10.9651435,17.3333333 10.6666667,17.6318102 10.6666667,18 C10.6666667,18.3681898 10.9651435,18.6666667 11.3333333,18.6666667 C11.7015232,18.6666667 12,18.3681898 12,18 C12,17.6318102 11.7015232,17.3333333 11.3333333,17.3333333 Z M13.3333333,17.3333333 C12.9651435,17.3333333 12.6666667,17.6318102 12.6666667,18 C12.6666667,18.3681898 12.9651435,18.6666667 13.3333333,18.6666667 L18,18.6666667 C18.3681898,18.6666667 18.6666667,18.3681898 18.6666667,18 C18.6666667,17.6318102 18.3681898,17.3333333 18,17.3333333 L13.3333333,17.3333333 Z M11.3333333,20 C10.9651435,20 10.6666667,20.2984768 10.6666667,20.6666667 C10.6666667,21.0348565 10.9651435,21.3333333 11.3333333,21.3333333 C11.7015232,21.3333333 12,21.0348565 12,20.6666667 C12,20.2984768 11.7015232,20 11.3333333,20 Z M13.3333333,20 C12.9651435,20 12.6666667,20.2984768 12.6666667,20.6666667 C12.6666667,21.0348565 12.9651435,21.3333333 13.3333333,21.3333333 L16,21.3333333 C16.3681898,21.3333333 16.6666667,21.0348565 16.6666667,20.6666667 C16.6666667,20.2984768 16.3681898,20 16,20 L13.3333333,20 Z" id="Shape" fill="#476BB3" fill-rule="evenodd"></path>
            </g>
        </g>
    </g>
</svg>