<svg xmlns="http://www.w3.org/2000/svg" width="16" height="16" viewBox="0 0 16 16">
    <g fill="none" fill-rule="evenodd">
        <path d="M0 0h16v16H0z"/>
        <path fill="#363D4D" d="M7.995 12.498A4.495 4.495 0 0 1 3.491 8c0-2.49 2.012-4.5 4.504-4.5a4.49 4.49 0 0 1 3.173 1.33L9.85 6.146a.5.5 0 0 0 .354.854H13.5a.5.5 0 0 0 .5-.5V3.206a.5.5 0 0 0-.853-.353l-.908.907A6.011 6.011 0 0 0 7.995 2 5.998 5.998 0 0 0 2 7.999a5.998 5.998 0 0 0 5.995 5.999 5.983 5.983 0 0 0 5.89-4.911.075.075 0 0 0-.074-.088h-1.354a.099.099 0 0 0-.096.075 4.504 4.504 0 0 1-4.366 3.424z"/>
    </g>
</svg>
