<svg xmlns="http://www.w3.org/2000/svg" width="48" height="48" viewBox="0 0 48 48">
    <g fill="none" fill-rule="evenodd">
        <path d="M0 0h48v48H0z"/>
        <path fill="#FFF" d="M18.082 20.808v6.384a1 1 0 0 1-1.531.847l-5.085-3.192a1 1 0 0 1 0-1.694l5.085-3.192a1 1 0 0 1 1.531.847zM22 12h2.047A1.953 1.953 0 0 1 26 14c-.028 9.181 0 15.852 0 20a2 2 0 0 1-2 2h-1.999A2 2 0 0 1 20 34c-.043-9.19 0-15.85 0-20a2 2 0 0 1 2-2zm9.035 2H35a2 2 0 1 1 0 4h-3.965a2 2 0 1 1 0-4zm0 8H35a2 2 0 1 1 0 4h-3.965a2 2 0 1 1 0-4zm0 8H35a2 2 0 1 1 0 4h-3.965a2 2 0 1 1 0-4z"/>
    </g>
</svg>
