<svg xmlns="http://www.w3.org/2000/svg" width="16" height="16" viewBox="0 0 16 16">
    <g fill="none" fill-rule="evenodd">
        <path d="M0 0h16v16H0z"/>
        <path fill="#476BB3" d="M9.445 10.988a.64.64 0 0 0-.736-.491c-.5.047-1.227.226-1.227-1.83 0-2.077.736-1.888 1.227-1.831.5.047.698-.302.736-.491.038-.208.302-1.434.34-1.642.037-.207.122-.519-.18-.745-.226-.17-1.377-.529-2.227.32-.849.85-1.217 2.558-1.217 4.388 0 1.812.377 3.53 1.217 4.37.84.839 2 .49 2.218.33.302-.227.217-.538.179-.746-.028-.217-.292-1.444-.33-1.632z"/>
    </g>
</svg>
