<svg xmlns="http://www.w3.org/2000/svg" width="16" height="16" viewBox="0 0 16 16">
    <path fill="#476BB3" fill-rule="evenodd" d="M6.296 13.44H3.8c-1.68 0-2.8-.41-2.8-2.464 0-1.586.825-2.548 2.028-3.219L3.8 7.28c0 .616 1.68 1.232 2.8 1.232.17 0 .34-.014.507-.04A5.575 5.575 0 0 0 6.04 11.76c0 .585.09 1.15.256 1.68zM3.804 3.43a3.184 3.184 0 0 1 0-.904C4.01 1.096 5.184 0 6.6 0s2.59 1.096 2.796 2.526a3.175 3.175 0 0 1 0 .904l-.007.08C9.211 5.528 8.03 7.088 6.6 7.088c-1.43 0-2.611-1.56-2.79-3.578a4.296 4.296 0 0 1-.006-.08zm1.051-1.606c-.59.233-.31 1.892-.31 1.892a1.189 1.189 0 0 0-.393-.184C4.315 5.296 5.35 6.655 6.6 6.655s2.285-1.36 2.447-3.123c-.11.028-.245.081-.392.184 0 0 .28-1.66-.31-1.892 0 0-.814.396-1.745.421-.93-.026-1.745-.42-1.745-.42zM14.91 14.21a.316.316 0 0 1-.002.446l-.371.371a.43.43 0 0 1-.214.093c-.112-.02-.189-.05-.231-.093l-1.309-1.308a.315.315 0 0 1-.092-.223v-.214a2.73 2.73 0 1 1 .473-.472h.214c.084 0 .164.032.223.091l1.309 1.309zm-3.899-1.4a1.679 1.679 0 1 0 0-3.36 1.679 1.679 0 1 0 0 3.36z"/>
</svg>
