<svg xmlns="http://www.w3.org/2000/svg" width="16" height="16" viewBox="0 0 16 16">
    <g fill="none" fill-rule="evenodd">
        <path d="M0 0h16v16H0z"/>
        <path fill="#476BB3" d="M8 10.621l-2.386 2.387c-.44.439-1.152.439-1.591 0l-.53-.53a1.125 1.125 0 0 1 0-1.592L5.878 8.5 3.492 6.114a1.125 1.125 0 0 1 0-1.591l.53-.53c.44-.44 1.152-.44 1.592 0L8 6.378l2.386-2.387c.44-.439 1.152-.439 1.591 0l.53.53c.44.44.44 1.152 0 1.592L10.122 8.5l2.387 2.386c.439.44.439 1.152 0 1.591l-.53.53c-.44.44-1.152.44-1.592 0L8 10.622z"/>
    </g>
</svg>
