<svg xmlns="http://www.w3.org/2000/svg" width="48" height="48" viewBox="0 0 48 48">
    <g fill="none" fill-rule="evenodd">
        <path d="M0 0h48v48H0z"/>
        <path fill="#FFF" d="M33.247 24a9.17 9.17 0 0 0-.086-1.17l2.608-1.986a.588.588 0 0 0 .148-.768l-2.466-4.158a.618.618 0 0 0-.753-.258l-3.07 1.206a9.423 9.423 0 0 0-2.085-1.182l-.463-3.18a.63.63 0 0 0-.616-.504H21.53a.618.618 0 0 0-.61.504l-.463 3.18a9.19 9.19 0 0 0-2.084 1.182l-3.071-1.206a.625.625 0 0 0-.753.258l-2.466 4.158a.59.59 0 0 0 .148.768l2.602 1.986a9.17 9.17 0 0 0-.086 1.17c0 .396.037.786.086 1.17l-2.602 1.986a.588.588 0 0 0-.148.768l2.466 4.158a.618.618 0 0 0 .753.258l3.07-1.206a9.423 9.423 0 0 0 2.085 1.182l.463 3.18c.049.282.302.504.61.504h4.934a.618.618 0 0 0 .61-.504l.463-3.18a9.19 9.19 0 0 0 2.084-1.182l3.071 1.206c.278.102.598 0 .752-.258l2.467-4.158a.59.59 0 0 0-.148-.768l-2.602-1.986a9.17 9.17 0 0 0 .086-1.17zm-9.25 4.2c-2.387 0-4.317-1.878-4.317-4.2s1.93-4.2 4.317-4.2c2.386 0 4.317 1.878 4.317 4.2s-1.93 4.2-4.317 4.2z"/>
    </g>
</svg>
