<svg xmlns="http://www.w3.org/2000/svg" width="48" height="48" viewBox="0 0 48 48">
    <g fill="none" fill-rule="evenodd">
        <path d="M0 0h48v48H0z"/>
        <path fill="#FFF" d="M37 23.832A9.966 9.966 0 0 0 33 23a9.953 9.953 0 0 0-5.172 1.44A.999.999 0 0 0 27 24h-2a1 1 0 0 0-1 1v2c0 .345.174.648.44.828A9.953 9.953 0 0 0 23 33c0 1.045.16 2.053.458 3H15a4 4 0 0 1-4-4V16a4 4 0 0 1 4-4h18a4 4 0 0 1 4 4v7.832zM17.5 15a.5.5 0 1 0 0 1h11a.5.5 0 1 0 0-1h-11zm2.5 4a1 1 0 0 0-1 1v2a1 1 0 0 0 1 1h2a1 1 0 0 0 1-1v-2a1 1 0 0 0-1-1h-2zm5 0a1 1 0 0 0-1 1v2a1 1 0 0 0 1 1h2a1 1 0 0 0 1-1v-2a1 1 0 0 0-1-1h-2zm5 0a1 1 0 0 0-1 1v2a1 1 0 0 0 1 1h2a1 1 0 0 0 1-1v-2a1 1 0 0 0-1-1h-2zm-15 5a1 1 0 0 0-1 1v2a1 1 0 0 0 1 1h2a1 1 0 0 0 1-1v-2a1 1 0 0 0-1-1h-2zm5 0a1 1 0 0 0-1 1v2a1 1 0 0 0 1 1h2a1 1 0 0 0 1-1v-2a1 1 0 0 0-1-1h-2zm-5 5a1 1 0 0 0-1 1v2a1 1 0 0 0 1 1h2a1 1 0 0 0 1-1v-2a1 1 0 0 0-1-1h-2zm5 0a1 1 0 0 0-1 1v2a1 1 0 0 0 1 1h2a1 1 0 0 0 1-1v-2a1 1 0 0 0-1-1h-2zm17 5.429h-2.571V37a1 1 0 0 1-1 1h-.858a1 1 0 0 1-1-1v-2.571H29a1 1 0 0 1-1-1v-.858a1 1 0 0 1 1-1h2.571V29a1 1 0 0 1 1-1h.858a1 1 0 0 1 1 1v2.571H37a1 1 0 0 1 1 1v.858a1 1 0 0 1-1 1z"/>
    </g>
</svg>
