<svg xmlns="http://www.w3.org/2000/svg" width="16" height="16" viewBox="0 0 16 16">
    <g fill="none" fill-rule="evenodd">
        <path d="M0 0h16v16H0z"/>
        <path fill="#476BB3" stroke="#476BB3" stroke-width=".5" d="M7.996 11.749a3.746 3.746 0 0 1-3.753-3.75 3.746 3.746 0 0 1 3.753-3.75c1.034 0 1.968.434 2.644 1.109l-.956.954a.5.5 0 0 0 .354.854H12.5a.5.5 0 0 0 .5-.5v-2.46a.5.5 0 0 0-.853-.353l-.615.613A5.01 5.01 0 0 0 7.996 3 4.999 4.999 0 0 0 3 8c0 2.757 2.235 4.998 4.996 4.998a4.986 4.986 0 0 0 4.908-4.092.062.062 0 0 0-.061-.074h-1.129a.082.082 0 0 0-.08.063 3.754 3.754 0 0 1-3.638 2.854z"/>
    </g>
</svg>
