<svg xmlns="http://www.w3.org/2000/svg" width="49" height="18" viewBox="0 0 49 18">
    <path fill="#FFF" fill-rule="evenodd" stroke="#363D4D" stroke-width=".2" d="M28.31 6.767l-.15.088L24.92 5.04v-.175l3.242-1.814.149.088v3.627zm-3.587-5.674l.148-.087 3.242 1.814v.174l-3.242 1.814-.148-.087V1.093zm8.806 8.14l.149-.088 3.242 1.814v.175l-3.242 1.814-.149-.088V9.233zM24.681 4.72l-.15.087-3.241-1.814V2.82l3.242-1.814.149.087v3.628zm7.306 4.046l-.149.088-3.242-1.814v-.175l3.242-1.814.15.088v3.627zm0 4.14l-.149.087-3.242-1.814v-.174l3.242-1.814.15.087v3.628zm-19.839-4.14L12 8.855 8.758 7.05v-.174l3.241-1.824.15.088v3.627zm12.533 0l-.15.088L21.29 7.04v-.175l3.242-1.814.149.088v3.627zm-12.245 8.274l-.149-.088v-3.627l.149-.088 3.242 1.814v.175l-3.242 1.814zm-.288-12.367L12 4.762 8.758 2.957v-.174L11.998.959l.15.088v3.627zM24.681 17l-.15.087-3.241-1.814V15.1l3.242-1.814.149.087V17zm7.26 0l-.148.087-3.242-1.814V15.1l3.242-1.814.149.087V17zm-10.847-5.72l.148-.088 3.242 1.814v.174l-3.242 1.814-.148-.087v-3.628zm-5.268 3.627l-.15.087-3.241-1.823v-.175l3.242-1.804.149.087v3.628zm12.723.087l-.149-.087v-3.628l.149-.087 3.242 1.814v.174l-3.242 1.814zm12.484 2l-.15-.087v-3.628l.15-.087 3.242 1.814v.174l-3.242 1.814zm3.424-10.273l-.15.087-3.227-1.814V4.82l3.242-1.814.149.087-.014 3.628zm.014 8.14l-.149.087-3.242-1.814v-.175l3.242-1.814.149.088v3.627zm.19-7.866v-.176l3.29-1.814.149.088v3.628l-.148.088-3.29-1.814zm-.033 7.953l-.149-.087-.014-3.628.148-.088 3.29 1.814v.175l-3.275 1.814zM48.1 12.86l-.148.088-3.29-1.814v-.175l3.29-1.814.148.088v3.627zm-7.306-8.232l-.15.087-3.241-1.814v-.174L40.645.913l.149.087v3.628zm-3.678 6.14l-.149.087-3.242-1.814v-.175l3.242-1.814.15.088v3.627zm-.004-4.047l-.15.087-3.237-1.814V4.82l3.242-1.814.15.087-.005 3.628zm0 8.14l-.15.087-3.237-1.814v-.175l3.242-1.814.15.088-.005 3.628zm.046-3.628l.148-.088 3.29 1.814v.175l-3.285 1.814-.148-.087-.005-3.628zm7.116-8.507v.175l-3.28 1.814-.149-.087L40.835 1l.149-.088 3.29 1.814zm-3.49 14.181l-.149.087-3.232-1.814v-.174l3.242-1.814.149.087-.01 3.628zm-16.103-4l-.15.087-3.241-1.814v-.174l3.242-1.814.149.087v3.628zm-5.226-.047l-.15.088-3.241-1.824v-.174l3.242-1.805.149.088v3.627zm2.035-5.568l2.994 1.667v.175l-3.242 1.814-.148-.088V7.233l.15-.086.246.145zm-5.574-.106l.149-.087 3.242 1.804v.175L16.065 10.9l-.149-.087V7.186zm5.178-4.046l.148-.088 3.242 1.814v.175l-3.242 1.814-.148-.088V3.14zm-1.64 1.534l-.148.088-3.242-1.805v-.174L19.306.959l.149.088v3.627zm0 4.093l-.148.088-3.242-1.805v-.174l3.242-1.824.149.088v3.627zm-3.538-5.674l.15-.087 3.241 1.823v.175l-3.242 1.804-.149-.087V3.093zm32.036 5.773v.175l-3.29 1.814-.15-.088V7.14l.15-.088 3.29 1.814zm-.049-4.047v.175l-3.275 1.814-.149-.087-.014-3.628.148-.088 3.29 1.814zM37.206 3.093l.15-.087 3.241 1.814v.174l-3.242 1.814-.149-.087V3.093zM28.4 3.14l.149-.088 3.242 1.814v.175l-3.242 1.814-.149-.088V3.14zm0 4.093l.149-.088L31.79 8.96v.175l-3.242 1.814-.149-.088V7.233zm5.129-2.14l.149-.087L36.92 6.82v.174l-3.242 1.814-.149-.087V5.093zm-21.38 11.86l-.15.088-3.241-1.814v-.175L12 13.238l.148.088v3.627zM6.97 14.86l-.149.088-3.242-1.814v-.175l3.242-1.814.149.088v3.627zm0-4.093l-.149.088L3.58 9.04v-.175l3.242-1.814.149.088v3.627zm1.639.512l.148-.087L12 12.996v.175L8.76 14.994l-.15-.087v-3.628zm3.538 1.581l-.149.088-3.242-1.824v-.174L12 9.145l.148.088v3.627zm-8.567 4.134l-.149-.087v-3.628l.15-.087 3.241 1.814v.174l-3.242 1.814zm3.39-10.273l-.149.087L3.58 4.994V4.82l3.242-1.814.149.087v3.628zM8.61 3.093l.149-.087L12 4.829v.175L8.757 6.808l-.148-.087V3.093zM3.432 1l.15-.087 3.241 1.814V2.9L3.581 4.715l-.149-.087V1zM8.61 7.186l.148-.087L12 8.903v.175L8.76 10.9l-.15-.087V7.186zm7.455 7.808l-.149-.087v-3.628l.149-.087 3.242 1.804v.175l-3.242 1.823zM3.432 5.093l.15-.087L6.822 6.82v.174L3.581 8.808l-.149-.087V5.093zm0 4.14l.15-.088 3.241 1.814v.175l-3.242 1.814-.149-.088V9.233zm-.09 4.046v3.628l-.149.087-3.242-1.814v-.174l3.242-1.814.149.087z"/>
</svg>
