<svg xmlns="http://www.w3.org/2000/svg" width="1024" height="871" viewBox="0 0 1024 871">
    <path fill="#E6ECFF" fill-rule="evenodd" d="M512 839c176.731 0 320 7.163 320 16s-143.269 16-320 16-320-7.163-320-16 143.269-16 320-16zM102.623 17.681C135.822-3.723 182.957-2.642 224.169 5.014c64.074 11.9 123.21 36.793 182.912 59.258 59.703 22.466 122.226 42.995 187.872 45.206 57.969 1.946 125.583-12.648 164.077-50.581 37.347-36.843 107.589-39.634 158.234-17.385 48.322 21.237 79.573 66.177 77.22 111.049-3.419 65.332-68.426 115.48-107.214 172.636-18.085 26.651-30.856 58.649-18.42 87.384 22.63 52.193 112.011 64.27 144.348 112.906 19.282 29 12.151 68.152-16.615 91.276-22.67 18.22-54.895 25.757-86.115 30.513-56.214 8.56-113.604 10.22-170.751 11.862-154.41 4.422-309.225 8.844-463.23-1.366-69.592-4.61-140.909-12.746-201.454-41.196-29.81-14.004-57.329-33.895-68.872-60.428-11.654-26.75-5.498-56.812 7.82-83.011 13.319-26.2 33.351-49.717 50.595-74.354 36.779-52.507 60.778-118.821 26.829-172.596-9.758-15.459-23.857-29.02-31.81-45.157-11.441-23.231-8.986-49.362-4.807-74.186 5.548-33 15.874-68.525 47.835-89.163z"/>
</svg>
