<svg xmlns="http://www.w3.org/2000/svg" width="425" height="456" viewBox="0 0 425 456">
    <g fill="none" fill-rule="evenodd">
        <path fill="#1F2E59" d="M327 6l64 64h-64V6zM100 6l64 64h-64V6z"/>
        <path fill="#FFF" stroke="#D2D7E6" d="M28.333 57.5C13.027 57.5.5 70.1.5 85.5v342c0 15.4 12.527 28 27.833 28h368.334c15.306 0 27.833-12.6 27.833-28v-342c0-15.4-12.527-28-27.833-28H28.333z"/>
        <path fill="#4D69BF" d="M332.314 432H393a8 8 0 0 0 8-8v-60.686a8 8 0 0 0-13.657-5.657l-60.686 60.686A8 8 0 0 0 332.314 432zM85 0C69.6 0 57 12.713 57 28.25v56.5C57 100.287 69.6 113 85 113s28-12.713 28-28.25v-56.5C113 12.713 100.4 0 85 0zm226 0c-15.4 0-28 12.713-28 28.25v56.5c0 15.537 12.6 28.25 28 28.25s28-12.713 28-28.25v-56.5C339 12.713 326.4 0 311 0zM221.5 279.625c11-11 16.5-24.208 16.5-39.625 0-15.417-5.479-28.604-16.437-39.563C210.605 189.48 197.417 184 182 184c-15.416 0-28.604 5.48-39.562 16.437C131.48 211.396 126 224.583 126 240c0 15.417 5.48 28.604 16.438 39.562C153.396 290.521 166.584 296 182 296c15.417 0 28.584-5.458 39.5-16.375zM302 344c0 4.333-1.583 8.083-4.75 11.25S290.333 360 286 360c-4.5 0-8.25-1.583-11.25-4.75l-42.875-42.75C216.958 322.833 200.333 328 182 328c-11.917 0-23.313-2.313-34.188-6.938-10.875-4.625-20.25-10.875-28.125-18.75s-14.124-17.25-18.75-28.125C96.312 263.312 94 251.917 94 240c0-11.917 2.312-23.313 6.937-34.188 4.625-10.875 10.875-20.25 18.75-28.125s17.25-14.124 28.125-18.75C158.687 154.312 170.083 152 182 152c11.917 0 23.312 2.312 34.187 6.937 10.875 4.625 20.25 10.875 28.125 18.75s14.125 17.25 18.75 28.125S270 228.083 270 240c0 18.333-5.167 34.958-15.5 49.875l42.875 42.875c3.083 3.083 4.625 6.833 4.625 11.25z"/>
    </g>
</svg>
