<?xml version="1.0" encoding="UTF-8"?>
<svg width="12px" height="12px" viewBox="0 0 12 12" version="1.1" xmlns="http://www.w3.org/2000/svg" xmlns:xlink="http://www.w3.org/1999/xlink">
    <!-- Generator: Sketch 55.1 (78136) - https://sketchapp.com -->
    <title>status</title>
    <desc>Created with Sketch.</desc>
    <g id="symbols" stroke="none" stroke-width="1" fill="none" fill-rule="evenodd">
        <g id="bars/status/default/5min" transform="translate(-22.000000, -5.000000)" fill="#000000">
            <g id="status" transform="translate(6.000000, 1.000000)">
                <g id="icon/48/video-copy" transform="translate(12.000000, 0.000000)">
                    <path d="M10,15.4166667 C7.00845761,15.4166667 4.58333333,12.9915424 4.58333333,10 C4.58333333,7.00845761 7.00845761,4.58333333 10,4.58333333 C12.9915424,4.58333333 15.4166667,7.00845761 15.4166667,10 C15.4166667,12.9915424 12.9915424,15.4166667 10,15.4166667 Z M11.1151961,10.5416667 L12.7083333,11.625 L12.692402,8.375 L11.0992647,9.45833333 L11.0992647,8.42916667 C11.0992647,8.30277778 11.0036765,8.19444444 10.8921569,8.19444444 L7.49877451,8.19444444 C7.3872549,8.19444444 7.29166667,8.30277778 7.29166667,8.42916667 L7.29166667,11.5708333 C7.29166667,11.6972222 7.3872549,11.8055556 7.49877451,11.8055556 L10.9080882,11.8055556 C11.0196078,11.8055556 11.1151961,11.6972222 11.1151961,11.5708333 L11.1151961,10.5416667 Z" id="Background-2"></path>
                </g>
            </g>
        </g>
    </g>
</svg>