<svg xmlns="http://www.w3.org/2000/svg" width="48" height="48" viewBox="0 0 48 48">
    <g fill="none" fill-rule="evenodd">
        <path d="M0 0h48v48H0z"/>
        <path fill="#303540" fill-rule="nonzero" d="M28.006 25.102C31.368 25.439 34 27.815 34 31.6c0 3.406-2.125 4.325-5 4.4H19c-3 0-5-.733-5-4.4 0-2.831 1.473-4.55 3.622-5.748L19 25c0 1.1 3 2.2 5 2.2s4-1.1 4.006-2.098zm-9-6.977a5.686 5.686 0 0 1 0-1.614C19.377 13.957 21.472 12 24 12s4.624 1.957 4.993 4.511a5.669 5.669 0 0 1 0 1.614c-.004.047-.007.095-.012.142-.318 3.605-2.427 6.39-4.981 6.39s-4.663-2.785-4.98-6.39c-.005-.047-.01-.095-.013-.142zm1.878-2.867c-1.053.415-.554 3.378-.554 3.378a2.123 2.123 0 0 0-.7-.328c.29 3.149 2.135 5.577 4.37 5.577 2.235 0 4.08-2.428 4.37-5.577-.196.049-.437.145-.7.328 0 0 .499-2.963-.555-3.378 0 0-1.453.706-3.115.75-1.662-.045-3.116-.75-3.116-.75z"/>
    </g>
</svg>
