<svg xmlns="http://www.w3.org/2000/svg" width="48" height="48" viewBox="0 0 48 48">
    <g fill="none" fill-rule="evenodd">
        <path d="M0 0h48v48H0z"/>
        <path fill="#FFF" d="M24 10c-1.169 0-2.145.719-2.422 1.696H19v2.826h10v-2.826h-2.578C26.145 10.719 25.169 10 24 10zm-10 4.826a2 2 0 0 1 2-2h2.375v2.261h11.25v-2.26H32a2 2 0 0 1 2 2V34a2 2 0 0 1-2 2H16a2 2 0 0 1-2-2V14.826zM17 18a1 1 0 1 0 0 2 1 1 0 0 0 0-2zm3 0a1 1 0 0 0 0 2h11a1 1 0 0 0 0-2H20zm-3 4a1 1 0 1 0 0 2 1 1 0 0 0 0-2zm3 0a1 1 0 0 0 0 2h11a1 1 0 0 0 0-2H20zm-3 4a1 1 0 1 0 0 2 1 1 0 0 0 0-2zm3 0a1 1 0 0 0 0 2h7a1 1 0 0 0 0-2h-7zm-3 4a1 1 0 1 0 0 2 1 1 0 0 0 0-2zm3 0a1 1 0 0 0 0 2h4a1 1 0 0 0 0-2h-4z"/>
    </g>
</svg>
