<svg xmlns="http://www.w3.org/2000/svg" width="48" height="48" viewBox="0 0 48 48">
    <g fill="none" fill-rule="evenodd">
        <path d="M0 0h48v48H0z"/>
        <path fill="#FFF" d="M36 17.524v12.952L28.558 36h-9.116L12 30.476V17.524L19.442 12h9.116L36 17.524zm-8.157-3.544h-7.686l-6.073 4.508v11.024l6.073 4.508h7.686l6.073-4.508V18.488l-6.073-4.508zm-4.626 5.866v3.625c0 .257.408.257.408 0v-4.25c0-.992 1.065-.992 1.065 0v4.25c0 .253.407.265.407-.007v-3.261c0-.666 1.065-.666 1.065 0v3.891c0 .256.408.257.408 0v-3.21c0-.666 1.065-.667 1.065 0v5.758c0 1.869-1.608 3.397-3.575 3.397-1.94.03-3.364-1.769-3.609-3.352-.169-1.099-.037-2.913-.037-4.086 0-.801 1.33-.801 1.33 0v1.27c0 .256.408.256.408 0v-4.025c0-.666 1.065-.666 1.065 0zm11.93-1.93L28.27 12.81h-8.54l-6.878 5.105v12.17l6.878 5.105h8.54l6.878-5.105v-12.17z"/>
    </g>
</svg>
