<svg xmlns="http://www.w3.org/2000/svg" width="48" height="48" viewBox="0 0 48 48">
    <g fill="none" fill-rule="evenodd">
        <path d="M0 0h48v48H0z"/>
        <path fill="#303540" fill-rule="nonzero" d="M32.462 30c-.15.27-.31.534-.479.79C29.91 33.937 26.436 36 22.5 36 16.149 36 11 30.627 11 24s5.149-12 11.5-12c4.257 0 7.973 2.413 9.962 6H30.1c-1.733-2.429-4.493-4-7.601-4-5.247 0-9.5 4.477-9.5 10s4.253 10 9.5 10c3.108 0 5.868-1.571 7.6-4h2.362zm2.645-8.18v-2.51c0-1.165 1.41-1.748 2.233-.924l4.69 4.69c.51.51.51 1.338 0 1.849l-4.69 4.69c-.824.823-2.233.24-2.233-.925v-2.51H18.654a.654.654 0 0 1-.654-.654v-3.052c0-.36.293-.654.654-.654h16.453z"/>
    </g>
</svg>
