<svg xmlns="http://www.w3.org/2000/svg" width="48" height="48" viewBox="0 0 48 48">
    <g fill="none" fill-rule="evenodd">
        <path d="M0 0h48v48H0z"/>
        <path fill="#303540" fill-rule="nonzero" d="M30 36v-2.997h2.251c.414 0 .75-.339.75-.75V30H36v3.003A3.002 3.002 0 0 1 33.002 36H30zm5.998-15v6h-2.996v-6h2.996zm-3.747-6H30v-3h3.002A3 3 0 0 1 36 15v3h-2.998v-2.25a.749.749 0 0 0-.75-.75zM21 12h6v3h-6v-3zm-6 3.75V18h-3v-3a3 3 0 0 1 3-3h3v3h-2.25a.746.746 0 0 0-.75.75zM12 27v-6h3v6h-3zm3.75 6.003H18V36h-3c-1.656 0-3-1.346-3-2.997V30h3v2.254c0 .41.333.749.75.749zM27 36h-6v-3h6v3z"/>
    </g>
</svg>
