<svg xmlns="http://www.w3.org/2000/svg" width="48" height="48" viewBox="0 0 48 48">
    <g fill="none" fill-rule="evenodd">
        <path d="M0 0h48v48H0z"/>
        <path fill="#303540" fill-rule="nonzero" d="M36.845 24.88l-3.393 6.466C32.915 32.37 31.93 33 30.862 33H12.127c-.868 0-1.408-1.047-.971-1.88l3.393-6.466C15.085 23.63 16.07 23 17.138 23h18.736c.868 0 1.408 1.047.971 1.88zM17.6 21.852H34v-2.356c0-1.3-1.075-2.355-2.4-2.355h-8L20.4 14h-8c-1.325 0-2.4 1.055-2.4 2.355V30l3.454-5.811c.857-1.442 2.445-2.337 4.146-2.337z"/>
    </g>
</svg>
