<svg xmlns="http://www.w3.org/2000/svg" width="48" height="48" viewBox="0 0 48 48">
    <g fill="none" fill-rule="evenodd">
        <path d="M0 0h48v48H0z"/>
        <path fill="#FFF" d="M16 12h16a2 2 0 0 1 2 2v22a2 2 0 0 1-2 2l-2-2-2 2-2-2-2 2-2-2-2 2-2-2-2 2a2 2 0 0 1-2-2v-1-19-2a2 2 0 0 1 2-2zm2 14a1 1 0 1 0 0 2 1 1 0 0 0 0-2zm3 0a1 1 0 0 0 0 2h10a1 1 0 0 0 0-2H21zm-3 4a1 1 0 1 0 0 2 1 1 0 0 0 0-2zm3 0a1 1 0 0 0 0 2h8a1 1 0 0 0 0-2h-8zm1.719-12.692c0-.456.421-.75 1.073-.75.523 0 1.059.24 1.496.553a.235.235 0 0 0 .344-.078l.46-.85a.234.234 0 0 0-.05-.288c-.475-.42-1.157-.665-1.786-.738v-.923a.235.235 0 0 0-.235-.234h-.782a.235.235 0 0 0-.235.234v.974c-1.147.26-1.903 1.092-1.903 2.122 0 2.412 3.614 2.164 3.614 3.308 0 .388-.319.804-1.02.804-.601 0-1.23-.31-1.718-.7a.235.235 0 0 0-.336.041l-.594.794a.234.234 0 0 0 .025.31c.47.45 1.16.806 1.932.937v.942c0 .13.105.234.235.234h.782c.13 0 .235-.105.235-.234v-.927c1.286-.2 2.077-1.156 2.077-2.276 0-2.337-3.614-2.025-3.614-3.255z"/>
    </g>
</svg>
