<svg xmlns="http://www.w3.org/2000/svg" width="48" height="48" viewBox="0 0 48 48">
    <g fill="none" fill-rule="evenodd">
        <path d="M0 0h48v48H0z"/>
        <path fill="#303540" fill-rule="nonzero" d="M35.99 17.899a.643.643 0 0 0-.633-.756h-4.008l.784-4.387A.643.643 0 0 0 31.5 12h-2.177a.643.643 0 0 0-.633.53l-.823 4.613h-5.284l.783-4.387a.643.643 0 0 0-.633-.756h-2.177a.643.643 0 0 0-.633.53l-.823 4.613h-4.238a.643.643 0 0 0-.632.53l-.383 2.143a.643.643 0 0 0 .633.755h4.007l-1.224 6.858h-4.237a.643.643 0 0 0-.633.53L12.01 30.1a.643.643 0 0 0 .633.756h4.008l-.784 4.387A.643.643 0 0 0 16.5 36h2.177a.643.643 0 0 0 .633-.53l.824-4.613h5.283l-.783 4.387a.643.643 0 0 0 .633.756h2.177a.643.643 0 0 0 .633-.53l.823-4.613h4.238a.643.643 0 0 0 .632-.53l.383-2.143a.643.643 0 0 0-.633-.755h-4.007l1.224-6.858h4.237a.643.643 0 0 0 .633-.53l.383-2.142zm-9.96 9.53h-5.284l1.224-6.858h5.284L26.03 27.43z"/>
    </g>
</svg>
