<svg xmlns="http://www.w3.org/2000/svg" width="48" height="48" viewBox="0 0 48 48">
    <g fill="none" fill-rule="evenodd">
        <path d="M0 0h48v48H0z"/>
        <path fill="#303540" fill-rule="nonzero" d="M21.156 18.924c0-1.367 1.264-2.25 3.22-2.25 1.569 0 3.176.718 4.488 1.66a.705.705 0 0 0 1.031-.236l1.382-2.552a.702.702 0 0 0-.15-.86c-1.426-1.258-3.471-1.997-5.358-2.215V9.703A.704.704 0 0 0 25.064 9h-2.347a.704.704 0 0 0-.705.703v2.92c-3.44.779-5.71 3.276-5.71 6.366 0 7.238 10.844 6.492 10.844 9.926 0 1.162-.957 2.412-3.06 2.412-1.804 0-3.693-.93-5.155-2.103a.706.706 0 0 0-1.007.125l-1.784 2.383a.702.702 0 0 0 .077.929c1.411 1.349 3.477 2.417 5.795 2.81v2.826c0 .388.316.703.705.703h2.347a.704.704 0 0 0 .705-.703v-2.78C29.626 34.92 32 32.05 32 28.69c0-7.013-10.844-6.076-10.844-9.766z"/>
    </g>
</svg>
